<mxfile host="app.diagrams.net" modified="2023-03-29T06:44:47.461Z" agent="Mozilla/5.0 (Windows NT 10.0; Win64; x64) AppleWebKit/537.36 (KHTML, like Gecko) Chrome/110.0.0.0 Whale/3.19.166.16 Safari/537.36" etag="VpiCB6yxV_M17EQ70kdm" version="21.1.1" type="github">
  <diagram name="페이지-1" id="e1kyk_bAt1oQyzGE8uVm">
    <mxGraphModel dx="1374" dy="751" grid="1" gridSize="10" guides="1" tooltips="1" connect="1" arrows="1" fold="1" page="1" pageScale="1" pageWidth="827" pageHeight="1169" math="0" shadow="0">
      <root>
        <mxCell id="0" />
        <mxCell id="1" parent="0" />
        <mxCell id="TUyGLT39QLDZdBPn5j5a-10" style="edgeStyle=orthogonalEdgeStyle;rounded=0;orthogonalLoop=1;jettySize=auto;html=1;" edge="1" parent="1" source="TUyGLT39QLDZdBPn5j5a-4" target="TUyGLT39QLDZdBPn5j5a-7">
          <mxGeometry relative="1" as="geometry" />
        </mxCell>
        <mxCell id="TUyGLT39QLDZdBPn5j5a-4" value="&lt;div style=&quot;&quot;&gt;obstacle_avoid_planner&lt;/div&gt;" style="rounded=1;whiteSpace=wrap;html=1;align=center;" vertex="1" parent="1">
          <mxGeometry x="220" y="296" width="147.5" height="74" as="geometry" />
        </mxCell>
        <mxCell id="TUyGLT39QLDZdBPn5j5a-8" style="edgeStyle=orthogonalEdgeStyle;rounded=0;orthogonalLoop=1;jettySize=auto;html=1;entryX=0;entryY=0.5;entryDx=0;entryDy=0;" edge="1" parent="1" source="TUyGLT39QLDZdBPn5j5a-5" target="TUyGLT39QLDZdBPn5j5a-4">
          <mxGeometry relative="1" as="geometry" />
        </mxCell>
        <mxCell id="TUyGLT39QLDZdBPn5j5a-5" value="autoware::&lt;br&gt;Path" style="ellipse;whiteSpace=wrap;html=1;" vertex="1" parent="1">
          <mxGeometry x="50" y="253" width="120" height="80" as="geometry" />
        </mxCell>
        <mxCell id="TUyGLT39QLDZdBPn5j5a-9" style="edgeStyle=orthogonalEdgeStyle;rounded=0;orthogonalLoop=1;jettySize=auto;html=1;entryX=0;entryY=0.5;entryDx=0;entryDy=0;" edge="1" parent="1" source="TUyGLT39QLDZdBPn5j5a-6" target="TUyGLT39QLDZdBPn5j5a-4">
          <mxGeometry relative="1" as="geometry" />
        </mxCell>
        <mxCell id="TUyGLT39QLDZdBPn5j5a-6" value="msg::Odometry" style="ellipse;whiteSpace=wrap;html=1;" vertex="1" parent="1">
          <mxGeometry x="50" y="333" width="120" height="80" as="geometry" />
        </mxCell>
        <mxCell id="TUyGLT39QLDZdBPn5j5a-7" value="autoware::Trajectory" style="ellipse;whiteSpace=wrap;html=1;" vertex="1" parent="1">
          <mxGeometry x="390" y="293" width="120" height="80" as="geometry" />
        </mxCell>
      </root>
    </mxGraphModel>
  </diagram>
</mxfile>
